<?xml version="1.0" encoding="UTF-8" standalone="no"?>
<!-- Created with Inkscape (http://www.inkscape.org/) -->

<svg
   width="364"
   height="364"
   viewBox="0 0 96.308331 96.308336"
   version="1.1"
   id="svg5"
   inkscape:version="1.1.1 (3bf5ae0d25, 2021-09-20)"
   sodipodi:docname="logo01.svg"
   xmlns:inkscape="http://www.inkscape.org/namespaces/inkscape"
   xmlns:sodipodi="http://sodipodi.sourceforge.net/DTD/sodipodi-0.dtd"
   xmlns="http://www.w3.org/2000/svg"
   xmlns:svg="http://www.w3.org/2000/svg">
  <sodipodi:namedview
     id="namedview7"
     pagecolor="#ffffff"
     bordercolor="#666666"
     borderopacity="1.0"
     inkscape:pageshadow="2"
     inkscape:pageopacity="0.0"
     inkscape:pagecheckerboard="0"
     inkscape:document-units="mm"
     showgrid="false"
     inkscape:zoom="1.4752525"
     inkscape:cx="-63.040056"
     inkscape:cy="165.05649"
     inkscape:window-width="2400"
     inkscape:window-height="1261"
     inkscape:window-x="2391"
     inkscape:window-y="-9"
     inkscape:window-maximized="1"
     inkscape:current-layer="layer1"
     units="px" />
  <defs
     id="defs2" />
  <g
     inkscape:label="Layer 1"
     inkscape:groupmode="layer"
     id="layer1">
    <text
       xml:space="preserve"
       style="font-size:50.8px;line-height:0;font-family:sans-serif;letter-spacing:0.182563px;word-spacing:0px;stroke-width:0.264583"
       x="10.161654"
       y="62.623566"
       id="text1684"><tspan
         sodipodi:role="line"
         id="tspan1682"
         style="font-style:normal;font-variant:normal;font-weight:normal;font-stretch:normal;font-size:50.8px;line-height:1.45;font-family:monospace;-inkscape-font-specification:monospace;stroke-width:0.264583"
         x="10.161654"
         y="62.623566">A<tspan
   style="letter-spacing:0.949854px"
   id="tspan41467">H</tspan><tspan
   style="font-style:normal;font-variant:normal;font-weight:bold;font-stretch:normal;font-size:16.9333px;line-height:1.45;font-family:monospace;-inkscape-font-specification:'monospace Bold';letter-spacing:0.949854px"
   id="tspan19571">I</tspan></tspan></text>
    <g
       id="g14963"
       transform="matrix(0.0335004,0,0,0.0335004,68.83,33.640776)">
      <g
         transform="translate(1,1)"
         id="g14950">
        <path
           style="fill:#80d6fa"
           d="m 270.36,441.027 c 8.533,-8.533 0,-25.6 -8.533,-34.133 -8.533,-8.533 -37.547,22.187 -25.6,34.133 8.533,8.533 25.6,8.533 34.133,0 z M 395.8,319.853 c 8.533,-25.6 42.667,-34.133 25.6,-51.2 -17.067,-17.067 -51.2,0 -59.733,0 -18.773,0 -25.6,34.133 -42.667,25.6 -17.067,-8.533 -34.133,8.533 -17.067,17.067 17.067,8.533 34.133,17.067 42.667,25.6 8.534,8.533 42.667,8.533 51.2,-17.067 z m 99.84,-102.4 c 1.707,11.093 2.56,22.187 2.56,34.133 0,136.533 -110.933,247.467 -247.467,247.467 -33.28,-20.48 -78.507,-53.76 -59.733,-98.133 25.6,-59.733 0,-76.8 -8.533,-85.333 -8.533,-8.533 -25.6,-8.533 -17.067,-34.133 8.533,-25.6 25.6,-17.067 25.6,-59.734 0,-42.667 -68.267,-34.133 -59.733,-8.533 8.533,25.6 -8.533,59.733 -42.667,85.333 C 54.466,324.12 45.934,255.853 63,238.787 74.947,226.84 36.547,220.867 4.973,222.574 l 5.12,-30.72 C 36.547,84.333 134.68,4.12 250.734,4.12 c 20.48,0 40.96,2.56 60.587,7.68 -5.12,23.893 11.947,34.133 11.947,42.667 0,8.534 0,51.2 -17.067,51.2 -17.067,0 -59.733,25.6 -42.667,51.2 17.067,25.6 25.6,59.733 42.667,51.2 17.067,-8.533 30.72,-60.587 42.667,-59.733 29.867,1.707 29.867,44.373 46.933,52.907 11.947,5.973 62.293,0 93.867,-13.653 z"
           id="path14946" />
        <path
           style="fill:#50dd8e"
           d="m 250.734,499.053 c -30.72,0 -59.733,-7.68 -59.733,-7.68 C 83.48,464.92 3.267,367.64 3.267,251.587 c 0,-10.24 0.853,-18.773 1.707,-29.013 31.573,-1.707 69.12,4.267 58.027,16.213 -17.067,17.067 -8.533,85.333 25.6,59.733 34.133,-25.6 51.2,-59.733 42.667,-85.333 -8.533,-25.6 59.733,-34.133 59.733,8.533 0,42.666 -17.067,34.133 -25.6,59.733 -8.533,25.6 8.533,25.6 17.067,34.133 8.532,8.534 34.132,25.601 8.532,85.334 -18.773,44.374 26.454,77.654 59.734,98.133 z M 421.4,268.653 c 17.067,17.067 -17.067,25.6 -25.6,51.2 -8.533,25.6 -42.667,25.6 -51.2,17.067 -8.533,-8.533 -25.6,-17.067 -42.667,-25.6 -17.067,-8.533 0,-25.6 17.067,-17.067 17.067,8.533 23.893,-25.6 42.667,-25.6 8.533,0 42.667,-17.066 59.733,0 z M 261.827,406.894 c 8.533,8.533 17.067,25.6 8.533,34.133 -8.533,8.533 -25.6,8.533 -34.133,0 -11.947,-11.947 17.067,-42.667 25.6,-34.133 z m 227.84,-220.161 c -31.573,13.653 -81.92,19.627 -93.867,13.653 -17.067,-8.533 -17.067,-51.2 -46.933,-52.907 -11.947,-0.853 -25.6,51.2 -42.667,59.733 -17.067,8.533 -25.6,-25.6 -42.667,-51.2 -17.067,-25.6 25.6,-51.2 42.667,-51.2 17.067,0 17.067,-42.667 17.067,-51.2 0,-8.533 -17.067,-18.772 -11.093,-42.665 15.36,4.267 33.28,11.093 33.28,11.093 69.973,29.013 123.733,90.454 144.213,164.693 z"
           id="path14948" />
      </g>
      <path
         style="fill:#51565f"
         d="m 251.734,504.32 c -0.853,0 -1.707,0 -2.56,-0.853 -24.747,-15.36 -82.773,-52.907 -61.44,-103.253 22.187,-52.053 4.267,-69.12 -5.12,-78.507 -0.853,-0.853 -1.707,-1.707 -2.56,-2.56 -1.707,-1.707 -4.267,-3.413 -6.827,-4.267 -7.68,-5.12 -18.773,-11.093 -11.093,-34.133 3.413,-11.093 8.533,-16.213 12.8,-20.48 6.827,-6.827 11.947,-12.8 11.947,-37.547 0,-13.653 -7.68,-19.627 -14.507,-23.04 -11.947,-5.12 -28.16,-2.56 -34.133,3.413 -3.413,2.56 -4.267,5.973 -2.56,9.387 9.387,27.307 -8.533,63.147 -44.373,90.453 C 74.24,315.733 64,307.2 60.587,302.08 c -12.8,-15.36 -13.653,-52.907 0,-65.707 0.853,-0.853 0.853,-0.853 0.853,-0.853 -1.707,-3.413 -23.893,-8.533 -52.053,-7.68 -0.853,8.533 -0.853,16.213 -0.853,24.747 0,111.787 75.947,209.067 184.32,236.373 2.56,0.853 3.413,2.56 3.413,5.12 -0.853,2.56 -2.56,3.413 -5.12,3.413 C 78.507,469.333 0,369.493 0,253.44 0,243.2 0.853,233.813 1.707,224.427 v -0.853 c 0,-0.853 0.853,-0.853 0.853,-1.707 0.853,-0.853 0.853,-0.853 1.707,-0.853 H 5.12 c 16.213,-0.853 58.027,0 64,12.8 0.853,1.707 1.707,5.973 -2.56,10.24 -10.24,10.24 -9.387,42.667 0.853,53.76 1.707,1.707 6.827,8.533 19.627,-0.853 32.427,-24.747 49.493,-57.173 40.96,-80.213 -2.56,-6.827 -0.853,-13.653 5.12,-18.773 10.24,-8.533 29.013,-11.093 43.52,-5.12 12.8,5.12 19.627,16.213 19.627,30.72 0,28.16 -7.68,35.84 -14.507,43.52 -4.267,4.267 -8.533,8.533 -11.093,17.92 -5.12,16.213 0,18.773 7.68,23.893 2.56,1.707 5.973,3.413 8.533,5.973 0.853,0.853 1.707,0.853 1.707,1.707 10.24,9.387 32.427,29.867 7.68,87.893 -16.213,38.4 19.627,68.267 57.173,92.16 133.12,-0.853 242.347,-109.227 242.347,-243.2 0,-11.093 -0.853,-23.04 -2.56,-33.28 0,-2.56 1.707,-4.267 3.413,-5.12 2.56,0 4.267,1.707 5.12,3.413 1.707,11.093 2.56,23.04 2.56,34.987 C 503.467,391.68 390.827,504.32 251.734,504.32 Z m 2.56,-52.053 c -7.68,0 -15.36,-2.56 -20.48,-7.68 -8.533,-8.533 -2.56,-23.893 7.68,-33.28 3.413,-3.413 7.68,-6.827 11.093,-7.68 6.827,-2.56 11.093,0 12.8,1.707 10.24,10.24 19.627,29.013 8.533,40.107 -4.266,4.266 -11.946,6.826 -19.626,6.826 z m 5.12,-41.814 c -1.707,0 -5.973,1.707 -11.093,6.827 -4.267,4.267 -6.827,8.533 -8.533,12.8 -1.707,4.267 -0.853,6.827 0.853,8.533 6.827,6.827 21.333,6.827 28.16,0 5.973,-5.973 -0.853,-20.48 -8.533,-28.16 z m 103.253,-63.146 c -8.533,0 -16.213,-2.56 -20.48,-5.973 -7.68,-7.68 -24.747,-16.213 -41.813,-24.747 -4.267,-1.707 -6.827,-5.12 -8.533,-7.68 -1.707,-3.413 -1.707,-6.827 0,-10.24 4.267,-7.68 17.067,-12.8 29.013,-6.827 5.12,2.56 9.387,-0.853 16.213,-9.387 5.973,-7.68 13.653,-16.213 23.893,-16.213 1.707,0 5.12,-0.853 9.387,-2.56 14.507,-4.267 39.253,-11.093 53.76,3.413 4.267,4.267 5.973,8.533 5.973,12.8 0,7.68 -5.973,12.8 -12.8,19.627 -6.827,5.973 -14.507,13.653 -17.067,23.04 -4.267,11.947 -13.653,20.48 -27.307,23.893 -2.559,0.854 -6.826,0.854 -10.239,0.854 z M 310.614,296.96 c -5.12,0 -8.533,2.56 -10.24,5.12 -0.853,0.853 -0.853,1.707 0,2.56 0.853,1.707 2.56,2.56 4.267,3.413 17.92,8.533 34.987,17.067 43.52,26.453 3.413,3.413 13.653,5.12 23.04,2.56 5.973,-1.707 17.067,-5.973 21.333,-17.92 4.267,-11.947 12.8,-20.48 19.627,-26.453 5.12,-5.12 10.24,-10.24 10.24,-13.653 0,-1.707 -0.853,-4.267 -3.413,-5.973 -11.093,-11.093 -31.573,-5.12 -45.227,-1.707 -5.12,1.707 -9.387,2.56 -11.947,2.56 -6.827,0 -11.947,5.973 -17.92,12.8 -6.827,7.68 -14.507,17.92 -26.453,11.947 -1.707,-0.854 -4.267,-1.707 -6.827,-1.707 z m -9.387,-82.773 c -11.947,0 -19.627,-15.36 -27.307,-31.573 -4.267,-7.68 -8.533,-16.213 -12.8,-23.04 -5.973,-8.533 -5.973,-18.773 -0.853,-28.16 9.387,-17.067 34.987,-29.867 46.933,-29.867 5.973,0 12.8,-11.947 12.8,-46.933 0,-1.707 -1.707,-4.267 -3.413,-7.68 C 312.32,40.107 306.347,29.867 308.054,15.361 290.134,11.094 271.361,8.534 252.587,8.534 140.8,8.533 43.52,84.48 16.214,192.853 c -0.853,2.56 -2.56,3.413 -5.12,3.413 -2.56,-0.853 -3.413,-2.56 -3.413,-5.12 C 35.84,78.507 135.68,0 251.734,0 c 20.48,0 41.813,2.56 61.44,7.68 2.56,0.853 3.413,2.56 3.413,5.12 -3.413,13.653 2.56,22.187 6.827,29.867 2.56,4.267 5.12,7.68 5.12,11.947 0,36.693 -6.827,55.467 -21.333,55.467 -10.24,0 -32.427,11.093 -40.107,25.6 -3.413,6.827 -3.413,12.8 0.853,19.627 5.12,7.68 9.387,16.213 13.653,23.893 10.24,20.48 16.213,29.013 23.893,25.6 7.68,-3.413 15.36,-19.627 21.333,-31.573 7.68,-16.213 14.507,-28.16 23.04,-28.16 v 0 c 20.48,0.853 29.013,18.773 35.84,33.28 4.267,8.533 7.68,17.067 13.653,19.627 9.387,5.12 54.613,0 87.04,-11.947 C 465.92,115.2 413.014,56.32 344.747,28.16 c -2.56,-0.853 -3.413,-3.413 -2.56,-5.973 0.853,-2.56 3.413,-3.413 5.973,-2.56 72.533,29.867 127.147,92.16 147.627,167.253 v 0.853 c 0,0.853 0,0.853 0,1.707 0,0.853 -0.853,0.853 -0.853,1.707 v 0 0 L 494.08,192 C 462.507,205.653 410.453,212.48 396.8,205.653 388.267,201.386 384,192 379.733,181.76 c -5.973,-13.653 -12.8,-27.307 -28.16,-28.16 -3.413,0 -11.093,15.36 -15.36,23.893 -7.68,15.36 -15.36,30.72 -25.6,35.84 -4.266,0 -6.826,0.854 -9.386,0.854 z"
         id="path14952" />
    </g>
  </g>
</svg>
